<?xml version="1.0" encoding="utf-8"?>
<!-- Generator: Adobe Illustrator 19.1.0, SVG Export Plug-In . SVG Version: 6.00 Build 0)  -->
<svg version="1.1" id="Layer_5" xmlns="http://www.w3.org/2000/svg" xmlns:xlink="http://www.w3.org/1999/xlink" x="0px" y="0px"
	 viewBox="0 0 100 100" style="enable-background:new 0 0 100 100;" xml:space="preserve">
<style type="text/css">
	.st0{display:none;}
	.st1{display:inline;}
	.st2{fill:#507190;}
</style>
<g class="st0">
	<path class="st1" d="M-13.7-127.2l-0.1,2.5c0,0.2-0.1,0.3-0.3,0.3l-0.4,0c-0.1,0-0.3-0.1-0.3-0.3l0.1-6c0-0.2,0.1-0.3,0.3-0.3
		l0.4,0c0.1,0,0.3,0.1,0.3,0.3l-0.1,2.5l8.7,0.2c0.1,0,0.3,0.1,0.3,0.3l0,0.5c0,0.1-0.1,0.3-0.3,0.3L-13.7-127.2z"/>
	<path class="st1" d="M-14.2-133.1c-0.1,0-0.3-0.2-0.2-0.3l0.1-0.5c0-0.2,0.2-0.3,0.3-0.2l4.1,0.4l0.6-5.7l-4.1-0.4
		c-0.1,0-0.3-0.1-0.2-0.3l0.1-0.5c0-0.1,0.2-0.3,0.3-0.2l9.3,0.9c0.1,0,0.3,0.2,0.2,0.3l-0.1,0.5c0,0.2-0.2,0.3-0.3,0.2l-4.3-0.4
		l-0.6,5.7l4.3,0.4c0.1,0,0.3,0.1,0.2,0.3l-0.1,0.5c0,0.1-0.2,0.3-0.3,0.2L-14.2-133.1z"/>
	<path class="st1" d="M-12.9-144.5c-0.1,0-0.2-0.2-0.2-0.3l1-5.5c0-0.2,0.2-0.2,0.3-0.2l0.4,0.1c0.1,0,0.2,0.2,0.2,0.3l-0.9,4.7
		l3.4,0.6l0.7-4c0-0.1,0.2-0.2,0.3-0.2l0.4,0.1c0.2,0,0.2,0.2,0.2,0.3l-0.7,4l3.5,0.7l0.9-4.7c0-0.2,0.2-0.2,0.3-0.2l0.4,0.1
		c0.1,0,0.2,0.2,0.2,0.3l-1,5.5c0,0.2-0.2,0.2-0.3,0.2L-12.9-144.5z"/>
	<path class="st1" d="M-9.4-160.8c0.9-2.7,3.7-4.2,6.4-3.3c2.7,0.9,4.1,3.7,3.3,6.4c-0.9,2.7-3.7,4.1-6.4,3.3
		C-8.7-155.3-10.2-158.1-9.4-160.8z M-0.6-158c0.7-2.1-0.5-4.5-2.7-5.1c-2.1-0.7-4.5,0.5-5.1,2.7c-0.7,2.1,0.5,4.4,2.7,5.1
		C-3.6-154.7-1.3-155.9-0.6-158z"/>
	<path class="st1" d="M-6.4-168.1c-0.1-0.1-0.2-0.2-0.1-0.3l2.1-5.1c0.1-0.1,0.2-0.2,0.3-0.1l0.4,0.2c0.1,0.1,0.2,0.2,0.1,0.4
		l-1.8,4.4l3.6,1.5l1.6-3.7c0.1-0.1,0.2-0.2,0.4-0.1l0.4,0.2c0.1,0.1,0.2,0.2,0.1,0.4l-1.6,3.7l3.6,1.5c0.1,0.1,0.2,0.2,0.1,0.4
		l-0.2,0.5c-0.1,0.1-0.2,0.2-0.4,0.1L-6.4-168.1z"/>
	<path class="st1" d="M-3-176c-0.1-0.1-0.2-0.2-0.1-0.4l2.5-5c0.1-0.1,0.2-0.2,0.4-0.1l0.4,0.2c0.1,0.1,0.2,0.2,0.1,0.4l-2.1,4.2
		l3.4,1.7l1.8-3.6c0.1-0.1,0.2-0.2,0.4-0.1l0.4,0.2c0.1,0.1,0.2,0.2,0.1,0.4l-1.8,3.6l3.4,1.7c0.1,0.1,0.2,0.2,0.1,0.4l-0.2,0.5
		c-0.1,0.1-0.2,0.2-0.4,0.1L-3-176z"/>
	<path class="st1" d="M1-183.4c-0.1-0.1-0.2-0.2-0.1-0.4l0.3-0.5c0.1-0.1,0.2-0.2,0.4-0.1l8.1,4.7c0.1,0.1,0.2,0.2,0.1,0.4l-0.3,0.5
		c-0.1,0.1-0.2,0.2-0.4,0.1L1-183.4z"/>
	<path class="st1" d="M5.3-191.1c0.8-1.2,1.8-1.8,3-2.1c0.2,0,0.3,0.1,0.3,0.2l0.1,0.5c0.1,0.2,0,0.3-0.2,0.3
		c-0.9,0.3-1.8,0.9-2.4,1.7c-1.2,1.9-0.6,4.3,1.2,5.5c1.8,1.2,4.3,0.8,5.5-1c0.7-1,0.7-1.9,0.6-2.8c0-0.2,0.1-0.3,0.2-0.3l0.6-0.1
		c0.1,0,0.3,0.1,0.3,0.2c0.2,1.3-0.1,2.6-0.8,3.6c-1.6,2.3-4.7,3-7,1.4C4.3-185.6,3.7-188.8,5.3-191.1z"/>
	<path class="st1" d="M9.1-195.8c-0.1-0.1-0.1-0.3,0-0.4l0.3-0.4c0.1-0.1,0.3-0.1,0.4-0.1l7.4,5.6c0.1,0.1,0.1,0.3,0.1,0.4l-0.3,0.4
		c-0.1,0.1-0.3,0.1-0.4,0.1L9.1-195.8z"/>
	<path class="st1" d="M17.9-192.2l-4.4-9.4c0-0.1,0-0.2,0-0.3l0.1-0.1c0.1-0.1,0.2-0.1,0.3-0.1l10,3c0.2,0.1,0.3,0.3,0.1,0.4
		l-0.4,0.4c-0.1,0.1-0.2,0.1-0.3,0.1l-2.4-0.7l-3.3,3.8l1.1,2.3c0,0.1,0,0.2,0,0.3l-0.4,0.4C18.2-192,18-192.1,17.9-192.2z
		 M20-199.3c-1.6-0.5-3.2-1-4.9-1.5l-0.1,0.1l2.2,4.6L20-199.3z"/>
	<path class="st1" d="M18.4-206.7c-0.1-0.1-0.1-0.3,0-0.4l0.4-0.4c0.1-0.1,0.3-0.1,0.4,0l6.1,6.1l2.9-2.9c0.1-0.1,0.3-0.1,0.4,0
		l0.3,0.3c0.1,0.1,0.1,0.3,0,0.4l-3.4,3.5c-0.1,0.1-0.3,0.1-0.4,0L18.4-206.7z"/>
	<path class="st1" d="M30.8-207.4c0-0.1,0-0.2,0-0.3c0-0.2,0-0.4,0.3-0.4c0.1,0,1.6,0.1,2.5-0.7c0.9-0.7,1-1.8,0.5-2.4
		c-0.6-0.7-1.6-0.7-3.3-0.1c-1.6,0.5-2.7,0.6-3.8-0.7c-0.6-0.7-1-2.4,0.7-3.8c1.1-0.9,2.3-1,2.3-1c0.1,0,0.3,0,0.4,0.3
		c0,0.1,0,0.2,0,0.3c0,0.2,0,0.4-0.3,0.4c-0.1,0-1.2,0.1-1.8,0.7c-1.1,1-0.9,2-0.5,2.4c0.6,0.7,1.5,0.7,2.7,0.3
		c2-0.6,3.4-0.9,4.4,0.4c0.9,1.1,0.6,2.8-0.7,3.9c-1.3,1.1-2.8,1-3,1C31.1-207.1,30.9-207.1,30.8-207.4z"/>
	<path class="st1" d="M33.9-219.3l-2,1.4c-0.1,0.1-0.3,0.1-0.4-0.1l-0.2-0.3c-0.1-0.1-0.1-0.3,0.1-0.4l4.8-3.5
		c0.1-0.1,0.3-0.1,0.4,0.1l0.2,0.3c0.1,0.1,0.1,0.3-0.1,0.4l-2,1.4l5.1,7c0.1,0.1,0.1,0.3-0.1,0.4l-0.4,0.3
		c-0.1,0.1-0.3,0.1-0.4-0.1L33.9-219.3z"/>
	<path class="st1" d="M41.6-214.4l-1.4-10.3c0-0.1,0-0.2,0.1-0.3l0.1-0.1c0.1-0.1,0.2,0,0.3,0l8.7,5.8c0.2,0.1,0.2,0.3,0,0.4
		l-0.5,0.3c-0.1,0.1-0.2,0-0.3,0l-2.1-1.4l-4.2,2.7l0.4,2.5c0,0.1,0,0.2-0.1,0.3l-0.5,0.3C41.8-214.1,41.6-214.2,41.6-214.4z
		 M45.6-220.5c-1.4-0.9-2.8-1.9-4.2-2.8l-0.1,0.1l0.7,5L45.6-220.5z"/>
	<path class="st1" d="M47.2-228.9c0-0.1,0-0.2,0.1-0.3l0.2-0.1c0.1,0,0.2,0,0.3,0l6,5.7c0,0,0,0,0.1,0l-1-8.2c0-0.1,0.1-0.2,0.1-0.2
		l0.2-0.1c0.1-0.1,0.2,0,0.3,0.1l5.9,7.7c0.1,0.2,0.1,0.3-0.1,0.4l-0.5,0.3c-0.1,0-0.2,0-0.3-0.1l-4.4-5.9c0,0,0,0-0.1,0l1,7.8
		c0,0.1-0.1,0.2-0.1,0.2l-0.2,0.1c-0.1,0-0.2,0-0.3,0l-5.7-5.5c0,0,0,0,0,0l2.2,7c0,0.1,0,0.2-0.1,0.3l-0.5,0.3
		c-0.2,0.1-0.3,0-0.4-0.2L47.2-228.9z"/>
	<path class="st1" d="M57.9-233.7c-0.1-0.1,0-0.3,0.2-0.3l2.9-1.1c1.6-0.6,3.5,0.2,4.1,1.8c0.6,1.6-0.2,3.5-1.8,4.1l-2.2,0.8
		l1.2,3.1c0.1,0.1,0,0.3-0.2,0.3l-0.5,0.2c-0.1,0.1-0.3,0-0.3-0.2L57.9-233.7z M62.8-230.3c1.1-0.4,1.7-1.7,1.2-2.8
		c-0.4-1.1-1.7-1.5-2.7-1.1l-2.1,0.8l1.5,3.9L62.8-230.3z"/>
	<path class="st1" d="M73.7-239.4c2.7-0.7,5.5,0.9,6.2,3.7c0.7,2.7-0.9,5.5-3.7,6.2c-2.7,0.7-5.5-0.9-6.2-3.6
		C69.4-236,71-238.7,73.7-239.4z M76-230.5c2.2-0.6,3.5-2.8,3-5c-0.6-2.2-2.8-3.5-5-3c-2.2,0.6-3.5,2.8-2.9,5
		C71.6-231.3,73.8-230,76-230.5z"/>
	<path class="st1" d="M81.5-240.7c0-0.1,0.1-0.3,0.2-0.3l5.5-0.9c0.2,0,0.3,0.1,0.3,0.2l0.1,0.4c0,0.1-0.1,0.3-0.2,0.3l-4.7,0.8
		l0.6,3.8l4-0.6c0.1,0,0.3,0.1,0.3,0.2l0.1,0.4c0,0.1-0.1,0.3-0.2,0.3l-4,0.6l0.6,3.8c0,0.1-0.1,0.3-0.2,0.3l-0.5,0.1
		c-0.2,0-0.3-0.1-0.3-0.2L81.5-240.7z"/>
	<path class="st1" d="M94.7-241.7l-2.4,0.2c-0.2,0-0.3-0.1-0.3-0.2l0-0.4c0-0.1,0.1-0.3,0.2-0.3l6-0.4c0.2,0,0.3,0.1,0.3,0.2l0,0.4
		c0,0.1-0.1,0.3-0.2,0.3l-2.4,0.2l0.6,8.6c0,0.1-0.1,0.3-0.2,0.3l-0.5,0c-0.1,0-0.3-0.1-0.3-0.2L94.7-241.7z"/>
	<path class="st1" d="M100.3-242.6c0-0.1,0.1-0.3,0.3-0.3l0.6,0c0.1,0,0.3,0.1,0.3,0.3l0.2,9.3c0,0.1-0.1,0.3-0.3,0.3l-0.6,0
		c-0.1,0-0.3-0.1-0.3-0.3L100.3-242.6z"/>
	<path class="st1" d="M106-242.9c0-0.1,0.2-0.2,0.3-0.2l0.2,0c0.1,0,0.2,0.1,0.2,0.2l2.4,7.9c0,0,0,0,0.1,0l3.2-7.6
		c0-0.1,0.1-0.1,0.2-0.1l0.2,0c0.1,0,0.2,0.1,0.2,0.2l1.3,9.6c0,0.2-0.1,0.3-0.3,0.3l-0.6,0c-0.1,0-0.2-0.1-0.2-0.2l-0.8-7.3
		c0,0,0,0-0.1,0l-3,7.3c0,0.1-0.2,0.1-0.2,0.1l-0.3,0c-0.1,0-0.2-0.1-0.2-0.2l-2.2-7.6c0,0,0,0-0.1,0l-1.6,7.2
		c0,0.1-0.2,0.2-0.3,0.2l-0.6,0c-0.2,0-0.3-0.2-0.2-0.4L106-242.9z"/>
	<path class="st1" d="M122.1-241.5c2.8,0.5,4.6,3.1,4.2,5.8c-0.5,2.8-3,4.6-5.8,4.2c-2.8-0.5-4.6-3-4.2-5.8
		C116.7-240.1,119.3-242,122.1-241.5z M120.6-232.5c2.2,0.4,4.3-1.1,4.7-3.4c0.4-2.2-1.2-4.3-3.4-4.7c-2.2-0.4-4.3,1.2-4.7,3.4
		C116.8-234.9,118.4-232.8,120.6-232.5z"/>
	<path class="st1" d="M130.7-238.6l-2.4-0.6c-0.2,0-0.2-0.2-0.2-0.3l0.1-0.4c0-0.1,0.2-0.2,0.3-0.2l5.8,1.5c0.2,0,0.2,0.2,0.2,0.3
		l-0.1,0.4c0,0.1-0.2,0.2-0.3,0.2l-2.4-0.6l-2.1,8.4c0,0.1-0.2,0.2-0.3,0.2l-0.5-0.1c-0.1,0-0.2-0.2-0.2-0.3L130.7-238.6z"/>
	<path class="st1" d="M136.6-237.8c0-0.1,0.2-0.2,0.3-0.2l0.5,0.2c0.1,0,0.2,0.2,0.2,0.3l-1.3,3.9l5.4,1.8l1.3-3.9
		c0-0.1,0.2-0.2,0.3-0.2l0.5,0.2c0.1,0,0.2,0.2,0.2,0.3l-3,8.8c0,0.1-0.2,0.2-0.3,0.2l-0.5-0.2c-0.1,0-0.2-0.2-0.2-0.3l1.4-4
		l-5.4-1.8l-1.4,4c0,0.1-0.2,0.2-0.3,0.2l-0.5-0.2c-0.1,0-0.2-0.2-0.2-0.3L136.6-237.8z"/>
	<path class="st1" d="M147.2-228.7l-1.2-5.7c0-0.2,0.2-0.4,0.4-0.3l0.6,0.3c0.1,0,0.1,0.1,0.2,0.2l1,4.7l4.2-2.5
		c0.1,0,0.2-0.1,0.3,0l0.6,0.3c0.2,0.1,0.2,0.3,0,0.5l-5,2.9l-1.8,4.1c-0.1,0.1-0.2,0.2-0.4,0.1l-0.5-0.2c-0.1-0.1-0.2-0.2-0.1-0.4
		L147.2-228.7z"/>
	<path class="st1" d="M153.5-222.1c0.1,0,0.2-0.1,0.3-0.1c0.2-0.1,0.4-0.1,0.5,0.1c0,0.1,0.5,1.5,1.6,2.1c1,0.6,2,0.3,2.4-0.4
		c0.5-0.8,0-1.8-1.1-3.1c-1-1.3-1.5-2.4-0.7-3.8c0.5-0.8,1.9-1.8,3.8-0.7c1.2,0.7,1.8,1.8,1.8,1.8c0.1,0.1,0.1,0.3-0.2,0.5
		c-0.1,0-0.2,0.1-0.3,0.2c-0.2,0.1-0.4,0.1-0.5-0.1c-0.1-0.1-0.5-1-1.3-1.5c-1.3-0.7-2.2-0.1-2.5,0.4c-0.5,0.8-0.1,1.7,0.7,2.7
		c1.3,1.6,2,2.8,1.2,4.3c-0.7,1.3-2.5,1.5-3.9,0.7c-1.5-0.8-2-2.2-2-2.5C153.3-221.8,153.2-222,153.5-222.1z"/>
	<path class="st1" d="M166.1-224.4c0.1-0.1,0.2-0.1,0.3,0l0.2,0.1c0.1,0.1,0.1,0.2,0.1,0.3l-2.1,8c0,0,0,0,0.1,0l6.7-4.9
		c0.1-0.1,0.2,0,0.3,0l0.2,0.1c0.1,0.1,0.1,0.2,0.1,0.3l-3.9,8.9c-0.1,0.2-0.2,0.3-0.4,0.1l-0.5-0.3c-0.1-0.1-0.1-0.2-0.1-0.3
		l3.1-6.7c0,0,0,0,0,0l-6.3,4.7c-0.1,0.1-0.2,0-0.3,0l-0.2-0.1c-0.1,0-0.1-0.2-0.1-0.3l2-7.6c0,0,0,0,0,0l-5.1,5.3
		c-0.1,0.1-0.2,0.1-0.3,0l-0.5-0.3c-0.2-0.1-0.2-0.3,0-0.4L166.1-224.4z"/>
	<path class="st1" d="M175.4-217.5c0.1-0.1,0.3-0.1,0.4,0l0.4,0.4c0.1,0.1,0.1,0.3,0,0.4l-5.8,7.3c-0.1,0.1-0.3,0.1-0.4,0l-0.4-0.4
		c-0.1-0.1-0.1-0.3,0-0.4L175.4-217.5z"/>
	<path class="st1" d="M179.3-213.3l-1.8-1.6c-0.1-0.1-0.1-0.3,0-0.4l0.3-0.3c0.1-0.1,0.3-0.1,0.4,0l4.5,3.9c0.1,0.1,0.1,0.3,0,0.4
		l-0.3,0.3c-0.1,0.1-0.3,0.1-0.4,0l-1.8-1.6l-5.7,6.5c-0.1,0.1-0.3,0.1-0.4,0l-0.4-0.4c-0.1-0.1-0.1-0.3,0-0.4L179.3-213.3z"/>
	<path class="st1" d="M184.2-209.9c0.1-0.1,0.3-0.1,0.4,0l0.4,0.4c0.1,0.1,0.1,0.3,0,0.4l-3,2.9l4,4.1l3-2.9c0.1-0.1,0.3-0.1,0.4,0
		l0.4,0.4c0.1,0.1,0.1,0.3,0,0.4l-6.7,6.5c-0.1,0.1-0.3,0.1-0.4,0l-0.4-0.4c-0.1-0.1-0.1-0.3,0-0.4l3.1-3l-4-4.1l-3.1,3
		c-0.1,0.1-0.3,0.1-0.4,0l-0.4-0.4c-0.1-0.1-0.1-0.3,0-0.4L184.2-209.9z"/>
	<path class="st1" d="M189.7-196.2c0.7-0.5,1.6-0.4,2.1,0.2c0.5,0.7,0.4,1.6-0.2,2.2c-0.6,0.5-1.6,0.4-2.1-0.3
		C189-194.7,189.1-195.7,189.7-196.2z"/>
	<path class="st1" d="M192.2-188.1c0.1,0,0.2,0,0.3,0c0.2,0,0.4,0.1,0.4,0.3c0,0.1-0.3,1.5,0.4,2.6c0.6,1,1.6,1.2,2.3,0.7
		c0.8-0.5,0.8-1.6,0.5-3.3c-0.3-1.7-0.3-2.8,1.1-3.7c0.8-0.5,2.5-0.8,3.8,1.1c0.8,1.2,0.7,2.4,0.7,2.4c0,0.1,0,0.3-0.4,0.3
		c-0.1,0-0.2,0-0.3,0c-0.2,0-0.4-0.1-0.4-0.3c0-0.1,0-1.2-0.5-1.9c-0.8-1.2-1.9-1.1-2.4-0.8c-0.8,0.5-0.8,1.4-0.6,2.7
		c0.4,2,0.5,3.4-0.9,4.3c-1.2,0.8-2.9,0.2-3.8-1.1c-0.9-1.4-0.7-2.9-0.7-3.1C191.8-187.9,191.9-188.1,192.2-188.1z"/>
	<path class="st1" d="M203.6-185.3c0.1-0.1,0.3,0,0.4,0.1l1.5,2.7c0.9,1.5,0.3,3.4-1.2,4.3c-1.5,0.9-3.5,0.3-4.3-1.2l-1.1-2
		l-2.9,1.6c-0.1,0.1-0.3,0-0.4-0.1l-0.3-0.5c-0.1-0.1,0-0.3,0.1-0.4L203.6-185.3z M200.9-180c0.6,1,1.9,1.4,2.9,0.8
		c1-0.6,1.3-1.9,0.7-2.9l-1.1-1.9l-3.6,2.1L200.9-180z"/>
	<path class="st1" d="M208-177.5c0.1-0.1,0.3,0,0.4,0.1l1.5,3.3c0.7,1.5,0.1,3.3-1.4,4.1c-1.2,0.5-2.5,0.2-3.5-0.7l-2.4,3.3
		c-0.1,0.2-0.4,0.2-0.5,0l-0.3-0.7c-0.1-0.1,0-0.2,0-0.3l2.6-3.3l-1.1-2.4l-3.3,1.5c-0.1,0.1-0.3,0-0.4-0.1l-0.2-0.5
		c-0.1-0.1,0-0.3,0.1-0.4L208-177.5z M205.2-172c0.5,1,1.7,1.5,2.7,1c1-0.5,1.4-1.7,0.9-2.7l-1.2-2.5l-3.7,1.7L205.2-172z"/>
	<path class="st1" d="M212-168.4c0.1,0,0.3,0,0.3,0.2l1.9,5.2c0.1,0.1,0,0.3-0.2,0.3l-0.4,0.1c-0.1,0-0.3,0-0.3-0.2l-1.6-4.4
		l-3.2,1.2l1.4,3.8c0,0.1,0,0.3-0.2,0.3l-0.4,0.1c-0.1,0.1-0.3,0-0.3-0.2l-1.4-3.8l-3.4,1.2l1.6,4.4c0.1,0.1,0,0.3-0.2,0.3l-0.4,0.1
		c-0.1,0-0.3,0-0.3-0.2l-1.9-5.2c-0.1-0.1,0-0.3,0.2-0.3L212-168.4z"/>
	<path class="st1" d="M205.7-158.8l10.3,1.6c0.1,0,0.2,0.1,0.2,0.2l0,0.1c0,0.1,0,0.2-0.1,0.3l-8,6.6c-0.2,0.1-0.4,0.1-0.4-0.1
		l-0.2-0.5c0-0.1,0-0.2,0.1-0.3l2-1.6l-1.3-4.8l-2.5-0.4c-0.1,0-0.2-0.1-0.2-0.2l-0.2-0.5C205.4-158.7,205.5-158.8,205.7-158.8z
		 M210.4-153.2c1.3-1.1,2.6-2.1,3.9-3.2l0-0.1l-5-0.7L210.4-153.2z"/>
	<path class="st1" d="M217.5-150.3c0.1,0,0.3,0.1,0.3,0.2l0.6,3.1c0.5,2.7-1.3,5.3-4,5.8c-2.7,0.5-5.3-1.3-5.8-4l-0.6-3.1
		c0-0.1,0.1-0.3,0.2-0.3L217.5-150.3z M209.6-145.6c0.4,2.3,2.3,3.6,4.6,3.2c2.3-0.4,3.6-2.4,3.2-4.6l-0.4-2.1l-7.8,1.4L209.6-145.6
		z"/>
	<path class="st1" d="M219.3-139.5c0.1,0,0.3,0.1,0.3,0.2l0.1,0.6c0,0.1-0.1,0.3-0.2,0.3l-9.3,1.1c-0.1,0-0.3-0.1-0.3-0.2l-0.1-0.6
		c0-0.1,0.1-0.3,0.2-0.3L219.3-139.5z"/>
	<path class="st1" d="M220-135c0.1,0,0.3,0.1,0.3,0.3l0,0.4l-7.6,6.7c0,0,0,0,0,0l7.5-0.4c0.1,0,0.3,0.1,0.3,0.3l0,0.5
		c0,0.1-0.1,0.3-0.3,0.3l-9.5,0.5c-0.1,0-0.3-0.1-0.3-0.3l0-0.3l7.8-6.8l0,0l-7.7,0.4c-0.1,0-0.3-0.1-0.3-0.3l0-0.5
		c0-0.1,0.1-0.3,0.3-0.3L220-135z"/>
	<path class="st1" d="M219.5-109.8c-0.2,1.4-0.8,2.4-1.7,3.2c-0.1,0.1-0.3,0.1-0.4,0c-0.1-0.1-0.2-0.3-0.3-0.4
		c-0.1-0.1-0.1-0.2,0.1-0.4c0.7-0.6,1.3-1.6,1.4-2.5c0.3-2.2-1.4-4.1-3.5-4.4c-2.2-0.3-4.3,1.2-4.5,3.4c-0.2,1.5,0.3,2.6,0.3,2.6
		l2,0.2l0.2-1.6c0-0.2,0.1-0.3,0.3-0.2l0.5,0.1c0.2,0,0.3,0.1,0.2,0.3l-0.3,2.4c0,0.1-0.2,0.2-0.3,0.2l-3.2-0.4
		c-0.1,0-0.2-0.1-0.2-0.1c0,0-0.7-1.5-0.5-3.6c0.4-2.8,2.9-4.8,5.7-4.4C217.9-115.2,219.9-112.6,219.5-109.8z"/>
	<path class="st1" d="M217.4-100.1c0.1,0,0.2,0.2,0.2,0.3l-1.3,5.4c0,0.2-0.2,0.2-0.3,0.2l-0.4-0.1c-0.1,0-0.2-0.2-0.2-0.3l1.1-4.6
		l-3.8-0.9l-1,3.9c0,0.1-0.2,0.2-0.3,0.2l-0.4-0.1c-0.1,0-0.2-0.2-0.2-0.3l1-3.9l-3.7-0.9c-0.1,0-0.2-0.2-0.2-0.3l0.1-0.5
		c0-0.2,0.2-0.2,0.3-0.2L217.4-100.1z"/>
	<path class="st1" d="M215.3-91.9c0.1,0,0.2,0.2,0.2,0.3l-0.2,0.5c0,0.1-0.2,0.2-0.3,0.2l-5.6-1.9c-1.5-0.5-3,0-3.6,1.6
		c-0.5,1.6,0.3,2.9,1.8,3.4l5.6,1.9c0.1,0,0.2,0.2,0.2,0.3l-0.2,0.5c0,0.1-0.2,0.2-0.3,0.2l-5.7-1.9c-2-0.7-3.1-2.6-2.4-4.8
		c0.7-2.1,2.7-3,4.8-2.3L215.3-91.9z"/>
	<path class="st1" d="M211.9-81.5c0.1,0.1,0.2,0.2,0.1,0.3l-0.1,0.3l-9.8,2.6c0,0,0,0,0,0l6.9,3c0.1,0.1,0.2,0.2,0.1,0.4l-0.2,0.5
		c-0.1,0.1-0.2,0.2-0.4,0.1l-8.7-3.9c-0.1-0.1-0.2-0.2-0.1-0.3l0.1-0.2l10-2.6l0,0l-7-3.1c-0.1-0.1-0.2-0.2-0.1-0.4l0.2-0.5
		c0.1-0.1,0.2-0.2,0.4-0.1L211.9-81.5z"/>
	<path class="st1" d="M198-74l5.9,8.5c0.1,0.1,0.1,0.2,0,0.3l-0.1,0.1c-0.1,0.1-0.2,0.1-0.3,0.1l-10.3-1.2c-0.2,0-0.3-0.2-0.2-0.4
		l0.3-0.5c0.1-0.1,0.2-0.1,0.3-0.1l2.5,0.3l2.6-4.3l-1.5-2.1c0-0.1-0.1-0.2,0-0.3l0.3-0.5C197.7-74.2,197.9-74.2,198-74z
		 M197.1-66.8c1.7,0.2,3.4,0.4,5,0.6l0.1-0.1l-2.9-4.1L197.1-66.8z"/>
	<path class="st1" d="M200.1-59.5c0.1,0.1,0.1,0.3,0,0.4l-0.2,0.3l-10.1,0.5c0,0,0,0,0,0l6.1,4.4c0.1,0.1,0.1,0.2,0.1,0.4l-0.3,0.4
		c-0.1,0.1-0.3,0.1-0.4,0.1l-7.7-5.6c-0.1-0.1-0.1-0.3,0-0.4l0.1-0.2l10.3-0.5l0,0l-6.2-4.5c-0.1-0.1-0.2-0.2-0.1-0.4l0.3-0.4
		c0.1-0.1,0.3-0.1,0.4-0.1L200.1-59.5z"/>
	<path class="st1" d="M193-50.4c0.1,0.1,0.1,0.3,0,0.4l-2.1,2.4c-1.8,2-4.9,2.2-7,0.4c-2-1.8-2.2-5-0.4-7l2.1-2.4
		c0.1-0.1,0.3-0.1,0.4,0L193-50.4z M184.4-53.7c-1.5,1.7-1.4,4.1,0.3,5.6c1.7,1.5,4.1,1.4,5.6-0.3l1.4-1.6l-5.9-5.3L184.4-53.7z"/>
	<path class="st1" d="M180-36.6c-1.1,0.9-2.2,1.3-3.4,1.3c-0.2,0-0.3-0.1-0.3-0.3l0-0.5c0-0.2,0.1-0.2,0.3-0.2c1,0,2-0.4,2.7-1
		c1.7-1.5,1.7-4,0.3-5.6c-1.4-1.6-4-1.9-5.6-0.4c-0.9,0.8-1.1,1.7-1.3,2.6c0,0.2-0.1,0.2-0.2,0.3l-0.6,0c-0.1,0-0.2-0.2-0.2-0.3
		c0.1-1.3,0.7-2.5,1.7-3.3c2.1-1.9,5.3-1.7,7.2,0.4C182.3-41.7,182.1-38.5,180-36.6z"/>
	<path class="st1" d="M171.7-30c-2.3,1.7-5.4,1.1-7.1-1.1c-1.7-2.3-1.1-5.4,1.1-7.1c2.3-1.7,5.4-1.2,7.1,1.1
		C174.5-34.8,174-31.6,171.7-30z M166.3-37.4c-1.8,1.3-2.2,3.9-0.9,5.7c1.3,1.8,3.9,2.2,5.7,0.9c1.8-1.3,2.2-3.9,0.9-5.7
		C170.7-38.3,168.1-38.7,166.3-37.4z"/>
	<path class="st1" d="M164-25c0,0.1,0,0.2-0.1,0.3l-0.2,0.1c-0.1,0-0.2,0-0.3,0l-6.3-5.4c0,0,0,0-0.1,0l1.5,8.1c0,0.1,0,0.2-0.1,0.3
		l-0.2,0.1c-0.1,0.1-0.2,0-0.3,0l-6.3-7.3c-0.1-0.2-0.1-0.3,0.1-0.4l0.5-0.3c0.1-0.1,0.2,0,0.3,0l4.7,5.7c0,0,0,0,0,0l-1.4-7.7
		c0-0.1,0.1-0.2,0.1-0.3l0.2-0.1c0.1,0,0.2,0,0.3,0l6,5.2c0,0,0,0,0,0l-2.5-6.9c0-0.1,0-0.2,0.1-0.3l0.5-0.3c0.2-0.1,0.3,0,0.4,0.2
		L164-25z"/>
	<path class="st1" d="M153.6-19.6c0.1,0.1,0,0.3-0.1,0.4l-5.1,2.3c-0.1,0.1-0.3,0-0.4-0.1l-0.2-0.4c-0.1-0.1,0-0.3,0.1-0.4l4.3-2
		l-1.4-3.1l-3.7,1.7c-0.1,0.1-0.3,0-0.4-0.1l-0.2-0.4c-0.1-0.1,0-0.3,0.1-0.4l3.7-1.7l-1.5-3.3l-4.3,2c-0.1,0.1-0.3,0-0.4-0.1
		l-0.2-0.4c-0.1-0.1,0-0.3,0.1-0.4l5.1-2.3c0.1-0.1,0.3,0,0.4,0.1L153.6-19.6z"/>
	<path class="st1" d="M145.4-16c0,0.1,0,0.3-0.1,0.3l-3,1.1c-2.6,0.9-5.4-0.4-6.3-3c-0.9-2.6,0.5-5.4,3-6.3l3-1.1
		c0.1,0,0.3,0,0.3,0.2L145.4-16z M139.5-23.1c-2.2,0.8-3.2,2.9-2.4,5.1c0.8,2.2,2.9,3.2,5.1,2.4l2-0.7l-2.6-7.5L139.5-23.1z"/>
	<path class="st1" d="M131.8-16.7l4.5,3.7c0.2,0.1,0.1,0.4-0.1,0.5l-0.6,0.2c-0.1,0-0.2,0-0.2-0.1l-3.8-3.1l-1.8,4.5
		c0,0.1-0.1,0.2-0.2,0.2l-0.6,0.2c-0.2,0.1-0.4-0.1-0.3-0.3l2.1-5.4l-1.1-4.4c0-0.1,0.1-0.3,0.2-0.3l0.5-0.1c0.2,0,0.3,0.1,0.3,0.2
		L131.8-16.7z"/>
	<path class="st1" d="M118.7-9.9l2.4-0.3c0.2,0,0.3,0.1,0.3,0.2l0.1,0.4c0,0.1-0.1,0.3-0.2,0.3l-5.9,0.8c-0.2,0-0.3-0.1-0.3-0.2
		L115-9.1c0-0.1,0.1-0.3,0.2-0.3l2.4-0.3l-1.1-8.6c0-0.1,0.1-0.3,0.2-0.3l0.5-0.1c0.1,0,0.3,0.1,0.3,0.2L118.7-9.9z"/>
	<path class="st1" d="M113-8.5c0,0.1-0.1,0.3-0.3,0.3l-0.5,0c-0.2,0-0.3-0.1-0.3-0.3l-0.2-4.1l-5.7,0.3l0.2,4.1
		c0,0.1-0.1,0.3-0.3,0.3l-0.5,0c-0.1,0-0.3-0.1-0.3-0.3l-0.5-9.3c0-0.1,0.1-0.3,0.3-0.3l0.5,0c0.2,0,0.3,0.1,0.3,0.3l0.2,4.3
		l5.7-0.3l-0.2-4.3c0-0.1,0.1-0.3,0.3-0.3l0.5,0c0.1,0,0.3,0.1,0.3,0.3L113-8.5z"/>
	<path class="st1" d="M101.5-8.1c0,0.1-0.1,0.3-0.3,0.3L97.6-8c-1.7-0.1-3-1.4-3-3.1c0-1.3,1-2.3,2.2-2.8l-1.8-3.7
		c-0.1-0.2,0-0.4,0.3-0.4l0.7,0c0.1,0,0.2,0.1,0.2,0.1L98-14l2.7,0.1l0.1-3.6c0-0.1,0.1-0.3,0.3-0.3l0.6,0c0.2,0,0.3,0.1,0.3,0.3
		L101.5-8.1z M97.9-13c-1.1,0-2.1,0.8-2.1,2c0,1.1,0.9,2,2,2.1l2.7,0.1l0.2-4L97.9-13z"/>
	<path class="st1" d="M87.2-8.7c-2.8-0.4-4.7-2.9-4.4-5.7c0.4-2.8,2.9-4.7,5.7-4.3c2.8,0.4,4.7,2.9,4.3,5.7
		C92.5-10.3,90-8.4,87.2-8.7z M88.4-17.8c-2.2-0.3-4.3,1.3-4.6,3.5c-0.3,2.2,1.3,4.3,3.5,4.6c2.2,0.3,4.3-1.3,4.6-3.5
		C92.2-15.5,90.6-17.5,88.4-17.8z"/>
	<path class="st1" d="M79.5-10.4c0,0.1-0.2,0.2-0.3,0.2l-0.5-0.1c-0.2,0-0.2-0.2-0.2-0.3l1.3-5.7c0.4-1.6-0.3-3-1.9-3.4
		c-1.6-0.4-2.9,0.6-3.3,2.1l-1.4,5.7c0,0.1-0.2,0.2-0.3,0.2l-0.5-0.1c-0.1,0-0.2-0.2-0.2-0.3l1.4-5.8c0.5-2.1,2.3-3.3,4.5-2.8
		c2.2,0.5,3.2,2.4,2.8,4.5L79.5-10.4z"/>
	<path class="st1" d="M64.7-14c-1.3-0.5-2.2-1.3-2.8-2.3c-0.1-0.1,0-0.3,0.1-0.4c0.2-0.1,0.4-0.2,0.5-0.2c0.2-0.1,0.2-0.1,0.3,0.1
		c0.5,0.8,1.3,1.6,2.2,1.9c2.1,0.7,4.3-0.5,5-2.6c0.7-2.1-0.3-4.4-2.4-5.1c-1.5-0.5-2.6-0.2-2.6-0.2L64.4-21l1.5,0.5
		c0.1,0,0.2,0.2,0.2,0.3l-0.2,0.5c0,0.1-0.2,0.2-0.3,0.2l-2.3-0.8c-0.1,0-0.2-0.2-0.2-0.3l1-3.1c0-0.1,0.1-0.2,0.2-0.2
		c0,0,1.7-0.4,3.6,0.2c2.7,0.9,4.1,3.8,3.2,6.4C70.2-14.6,67.4-13.1,64.7-14z"/>
	<path class="st1" d="M58.6-16.7c-0.1,0.1-0.2,0.2-0.4,0.1l-0.5-0.2c-0.1-0.1-0.2-0.2-0.1-0.4l1.7-3.8L54-23.3l-1.7,3.8
		c-0.1,0.1-0.2,0.2-0.4,0.1l-0.5-0.2c-0.1-0.1-0.2-0.2-0.1-0.4l3.8-8.5c0.1-0.1,0.2-0.2,0.4-0.1l0.5,0.2c0.1,0.1,0.2,0.2,0.1,0.4
		l-1.7,3.9l5.2,2.3l1.7-3.9c0.1-0.1,0.2-0.2,0.4-0.1l0.5,0.2c0.1,0.1,0.2,0.2,0.1,0.4L58.6-16.7z"/>
	<path class="st1" d="M44.2-23.4c-2.4-1.4-3.3-4.5-1.8-6.9c1.4-2.4,4.5-3.3,6.9-1.8c2.4,1.4,3.3,4.5,1.9,6.9
		C49.7-22.8,46.6-22,44.2-23.4z M48.8-31.3c-1.9-1.1-4.5-0.5-5.6,1.5c-1.1,1.9-0.5,4.5,1.5,5.6c1.9,1.1,4.5,0.4,5.6-1.5
		C51.4-27.7,50.7-30.2,48.8-31.3z"/>
	<path class="st1" d="M37.7-27.8c-0.1,0.1-0.3,0.1-0.4,0.1l-0.4-0.3c-0.1-0.1-0.1-0.3-0.1-0.4l3.4-4.8c0.9-1.3,0.9-2.9-0.5-3.9
		c-1.4-1-2.9-0.6-3.8,0.7l-3.4,4.8c-0.1,0.1-0.2,0.2-0.4,0.1l-0.4-0.3c-0.1-0.1-0.1-0.3-0.1-0.4l3.5-4.8c1.2-1.7,3.4-2.2,5.2-0.9
		c1.8,1.3,2.1,3.5,0.8,5.2L37.7-27.8z"/>
	<path class="st1" d="M28.4-35.7l1.9,1.6c0.1,0.1,0.1,0.3,0,0.4l-0.3,0.3c-0.1,0.1-0.3,0.1-0.4,0l-4.6-3.8c-0.1-0.1-0.1-0.3,0-0.4
		l0.3-0.3c0.1-0.1,0.3-0.1,0.4,0l1.9,1.6l5.6-6.6c0.1-0.1,0.3-0.1,0.4,0l0.4,0.3c0.1,0.1,0.1,0.3,0,0.4L28.4-35.7z"/>
	<path class="st1" d="M20.7-42.7l1.7,1.7c0.1,0.1,0.1,0.3,0,0.4l-0.3,0.3c-0.1,0.1-0.3,0.1-0.4,0l-4.2-4.2c-0.1-0.1-0.1-0.3,0-0.4
		l0.3-0.3c0.1-0.1,0.3-0.1,0.4,0l1.7,1.7l6.1-6.1c0.1-0.1,0.3-0.1,0.4,0l0.4,0.4c0.1,0.1,0.1,0.3,0,0.4L20.7-42.7z"/>
	<path class="st1" d="M16.1-46.5c-0.1,0.1-0.3,0.1-0.4,0l-0.4-0.4c-0.1-0.1-0.1-0.3,0-0.4l3.1-2.7l-3.7-4.4l-3.1,2.7
		c-0.1,0.1-0.3,0.1-0.4,0l-0.4-0.4c-0.1-0.1-0.1-0.3,0-0.4l7.1-6.1c0.1-0.1,0.3-0.1,0.4,0l0.4,0.4c0.1,0.1,0.1,0.3,0,0.4l-3.3,2.8
		l3.7,4.4l3.3-2.8c0.1-0.1,0.3-0.1,0.4,0l0.4,0.4c0.1,0.1,0.1,0.3,0,0.4L16.1-46.5z"/>
	<path class="st1" d="M8.9-55.3c-0.1,0.1-0.3,0.1-0.4-0.1l-3.2-4.5c-0.1-0.1-0.1-0.3,0.1-0.4l0.3-0.2c0.1-0.1,0.3-0.1,0.4,0.1
		l2.7,3.9l2.8-2l-2.3-3.3c-0.1-0.1-0.1-0.3,0.1-0.4l0.3-0.2c0.1-0.1,0.3-0.1,0.4,0.1l2.3,3.3l2.9-2.1L12.5-65
		c-0.1-0.1-0.1-0.3,0.1-0.4l0.3-0.2c0.1-0.1,0.3-0.1,0.4,0.1l3.2,4.5c0.1,0.1,0.1,0.3-0.1,0.4L8.9-55.3z"/>
	<path class="st1" d="M2.4-64.7c-0.1,0.1-0.3,0.1-0.4-0.1l-0.3-0.5c-0.1-0.1,0-0.2,0.1-0.3l5.5-5.2l0,0l-7.7,1.5
		c-0.1,0-0.2,0-0.2-0.1l-0.1-0.2c-0.1-0.1,0-0.2,0-0.3l5.4-5.7l0,0L-2.7-74c-0.1,0-0.2,0-0.3-0.1l-0.3-0.5c-0.1-0.2,0-0.3,0.2-0.4
		l9.6-2.2c0.1,0,0.2,0,0.3,0.1l0.1,0.2c0,0.1,0,0.2,0,0.3l-5.6,5.8l0,0.1l7.8-1.5c0.1,0,0.2,0.1,0.3,0.1l0.1,0.2
		c0.1,0.1,0,0.2-0.1,0.3L2.4-64.7z"/>
	<path class="st1" d="M-6.3-81.3C-7.3-84-6.1-86.9-3.5-88c2.6-1.1,5.5,0.2,6.6,2.8c1.1,2.6-0.2,5.5-2.8,6.6
		C-2.3-77.5-5.2-78.7-6.3-81.3z M2.2-84.8C1.4-86.9-1-87.9-3.1-87c-2.1,0.8-3.1,3.3-2.3,5.3c0.8,2.1,3.3,3.1,5.3,2.2
		C2-80.3,3.1-82.7,2.2-84.8z"/>
	<path class="st1" d="M-8.7-88.9c-0.1,0-0.3,0-0.3-0.2l-1-3.5c-0.5-1.6,0.4-3.3,2-3.8c1.2-0.4,2.5,0.1,3.4,1.2l2.9-2.9
		c0.1-0.1,0.4-0.1,0.5,0.1l0.2,0.7c0,0.1,0,0.2-0.1,0.3l-3,2.9l0.8,2.6l3.4-1c0.1,0,0.3,0,0.3,0.2l0.2,0.5c0,0.1,0,0.3-0.2,0.3
		L-8.7-88.9z M-5.2-94c-0.3-1-1.4-1.7-2.6-1.4c-1,0.3-1.6,1.5-1.3,2.5l0.8,2.6l3.9-1.2L-5.2-94z"/>
	<path class="st1" d="M-11.3-98.4c-0.1,0-0.3-0.1-0.3-0.2l-0.1-0.5c0-0.1,0.1-0.3,0.2-0.3l8.5-1.8l-0.9-4c0-0.2,0.1-0.3,0.2-0.3
		l0.4-0.1c0.1,0,0.3,0.1,0.3,0.2l1,4.8c0,0.2-0.1,0.3-0.2,0.3L-11.3-98.4z"/>
	<path class="st1" d="M-12.8-105.7c-0.1,0-0.3-0.1-0.3-0.2l-0.4-3.1c-0.4-2.7,1.5-5.2,4.2-5.6c2.7-0.4,5.2,1.5,5.6,4.2l0.4,3.1
		c0,0.1-0.1,0.3-0.2,0.3L-12.8-105.7z M-4.7-110.1c-0.3-2.3-2.2-3.7-4.5-3.4c-2.3,0.3-3.7,2.2-3.4,4.5l0.3,2.1l7.9-1.1L-4.7-110.1z"
		/>
	<path class="st1" d="M-9.1-118.9c-0.8,0-1.6-0.6-1.6-1.4c0-0.8,0.6-1.6,1.5-1.6c0.8,0,1.5,0.6,1.5,1.5
		C-7.6-119.6-8.3-118.9-9.1-118.9z"/>
</g>
<g>
	<path class="st2" d="M4.3,60.4c0.7-0.3,1.5-0.5,2.3-0.7c0.8-0.2,1.5-0.3,2.3-0.4c2-0.3,4.1-0.3,6,0.1c2,0.4,3.7,1.2,5.2,2.6
		c0.7,0.6,1.2,1,1.5,1.3c0.3,0.3,0.4,0.5,0.5,0.7c0,0.1,0,0.2-0.1,0.3c-0.1,0.1-0.3,0.3-0.6,0.5c-0.3,0.2-0.7,0.6-1.1,1.1
		c-0.1,0.1-0.2,0.2-0.3,0.3c-0.1,0.1-0.3,0.2-0.5,0.4c-0.9,0.9-1.7,2-2.4,3.3c-0.8,1.3-1.1,2.5-1.2,3.8c0,0.8,0,1.6,0,2.4
		c0,0.8,0,1.5,0.1,2.2c0.9,5.3,3.5,9,7.9,11.1c4.4,2,9,2.7,14,2c0.2,0,0.4-0.1,0.6-0.1c0.2,0,0.4-0.1,0.6-0.1
		c4.5-0.9,8.6-2.8,12.3-5.7c3.6-2.9,5.8-6.8,6.3-11.7c0.1-0.8,0.3-2.1,0.3-2.7c0-0.6-0.2-0.8-0.3-1.5c-0.6-3.9-2.5-7.1-5.8-9.7
		c-3.3-2.5-6.9-4.9-10.7-7.1c-0.1,0-0.2,0-0.2,0c-0.1,0-0.1-0.1-0.2-0.2c-0.1-0.1-0.2-0.1-0.3-0.2c-0.1,0-0.1-0.1-0.2,0
		c-4.6-2.6-8.8-5.5-12.7-8.6c-3.9-3.2-6.3-7.4-7.1-12.7C20.3,29.5,20,29.3,20,27c0-1.4,0.5-3.2,0.8-4.8c1-5.7,4.3-10.5,9.8-14.3
		c5-3.4,10.3-6,16.1-7.9C20.6,1.8,0,23.5,0,50c0,4.1,0.5,8,1.4,11.8C2.3,61.3,3.3,60.8,4.3,60.4z"/>
	<path class="st2" d="M87.7,17.1c-0.5,0.7-1.1,1.3-1.8,1.8c-1.9,1.5-4.1,2.5-6.5,3c-0.2,0-0.4,0.1-0.5,0.1c-0.1,0-0.3,0-0.5,0.1
		c-0.7,0.1-1.3,0.1-2,0.1c-0.7,0-1.3,0-1.9,0c-0.7-0.1-1.4-0.3-2.2-0.5c-0.7-0.2-1.5-0.5-2.2-0.8c-0.4-0.1-0.8-0.3-1.1-0.4
		c-0.3-0.2-0.7-0.3-1.1-0.4c0.5-0.5,1-0.9,1.4-1.2c0.4-0.4,0.8-0.7,1.1-1.1c0.5-0.5,0.9-1,1.2-1.7c0.3-0.6,1.1-1.7,1.3-2.9
		c0-0.4,0.1-0.8,0.1-1.1c0-0.4,0-0.7,0-1c-0.4-2.4-2.5-3.9-5.1-4.9c-2.6-1-5.3-1.3-8.1-1c-0.1,0-0.2,0-0.2,0c-0.1,0-0.1,0-0.2,0
		c-2.4,0.4-4.7,1.2-6.7,2.6c-2,1.3-3,2.9-3.5,5.3c0,0.4-0.1,0.8-0.1,1.1c0,0.4,0,0.7,0,1.1c0.4,1.8,1.1,3.7,2.7,5.1
		c1.6,1.4,3.3,2.6,5,3.6c0.9,0.5,1.7,0.9,2.4,1.3c0.7,0.4,1.4,0.7,2.1,1c0.6,0.3,1.3,0.7,2,1c0.7,0.4,1.4,0.7,2.2,1
		c5.2,2.8,10.1,6.1,14.6,9.9c4.6,3.8,7.3,8.9,8.3,15.3c0.2,1.6,0.3,3.2,0.3,4.8c-0.1,1.7-0.2,3.4-0.6,5.4
		c-1.6,8.6-6.7,15.9-15.1,21.9c-8.5,6-17.8,10.2-28.1,12.5c-1.1,0.3-2.1,0.5-3.2,0.7c-0.5,0.1-1,0.2-1.4,0.3
		c3.1,0.6,6.4,0.9,9.7,0.9c27.6,0,50-22.4,50-50C100,37.4,95.3,25.9,87.7,17.1z"/>
</g>
</svg>
